<svg xmlns="http://www.w3.org/2000/svg" xmlns:xlink="http://www.w3.org/1999/xlink" version="1.1" id="Layer_1" x="0px" y="0px" viewBox="0 0 278.57 165.36" style="enable-background:new 0 0 278.57 165.36;" xml:space="preserve">
<style type="text/css">
	.st0{fill:#231F20;}
	.st1{fill:#ffffff;}
	.st2{fill:#1f1f1f;}
	.st3{fill:#898989;}
	.st4{fill:#7C7C7C;}
	.st5{fill:none;stroke:#7C7C7C;stroke-width:0.75;stroke-miterlimit:10;}
	.st6{fill:#6B6B6B;}
	.st7{fill:none;stroke:#231F20;stroke-width:7;stroke-miterlimit:10;}
	.st8{fill:none;stroke:#231F20;stroke-miterlimit:10;}
	.st9{fill:none;stroke:#606060;stroke-miterlimit:10;}
	.st10{fill:none;stroke:#606060;stroke-width:0.25;stroke-miterlimit:10;}
	.st11{fill:none;stroke:#606060;stroke-width:7;stroke-miterlimit:10;}
	.st12{fill:none;stroke:#606060;stroke-width:10;stroke-miterlimit:10;}
	.st13{fill:none;stroke:#fffdfd;stroke-width:0.25;stroke-miterlimit:10;}
	.st14{fill:#757575;}
	.st15{fill:#2BA344;}
	.st16{fill:#A0A0A0;}
	.st17{fill:none;stroke:#A0A0A0;stroke-width:3;stroke-miterlimit:10;}
	.st18{fill:none;stroke:#A0A0A0;stroke-miterlimit:10;}
	.st19{fill:none;stroke:#231F20;stroke-width:0.25;stroke-miterlimit:10;}
	.st20{fill:#8C8C8C;}
</style>
<g>
	<path d="M65.17,64.44c0,4.76,0,9.51,0,14.27c0,1.65-0.46,2.13-2.15,2.14c-7.39,0.01-14.79,0.01-22.18,0   c-1.53,0-2.19-0.79-1.89-2.16c1.74-7.87,4.67-15.27,8.96-22.1c7.21-11.49,16.91-20.22,29.13-26.14c8.01-3.88,16.47-6.05,25.33-6.71   c1.06-0.08,1.35-0.47,1.32-1.48c-0.19-6.67-0.34-13.33-0.48-20c-0.05-2.24,0.75-2.74,2.78-1.81c16.21,7.48,32.41,14.96,48.63,22.42   c1.14,0.52,1.62,1.23,1.57,2.5c-0.09,2.2-0.03,4.4-0.03,6.59c0.01,1.57,0.5,2.02,2.04,1.86c3.1-0.31,6.2-0.65,9.3-0.96   c1.59-0.16,2.05,0.26,2.05,1.83c0,2.56-0.01,5.12,0,7.67c0,1.58,0.36,2,1.87,2.24c1.99,0.31,2.13,0.43,2.19,2.4   c0.12,4.47,0.22,8.94,0.33,13.41c0.05,1.96,0.09,3.91,0.18,5.87c0.06,1.37,0.52,1.83,1.9,1.94c1.51,0.12,3.03,0.22,4.54,0.29   c1.03,0.05,1.7,0.55,1.82,1.55c0.35,2.89,0.69,5.78,0.93,8.69c0.12,1.44-0.54,2.07-1.97,2.09c-1.8,0.03-3.6-0.01-5.4,0.01   c-1.11,0.01-1.83-0.46-2.15-1.53c-0.11-0.34-0.22-0.69-0.32-1.03c-0.32-1.05-0.99-1.57-2.14-1.49c-1.51,0.11-3.03,0.15-4.55,0.21   c-1.77,0.07-2.22-0.37-2.22-2.12c0-6.28,0-12.55,0.01-18.83c0-1.87-0.16-2.06-1.98-2.47c-1-0.22-1.14-1-1.14-1.84   c0-2.32,0.01-4.64,0.01-6.96c0-1.95-0.43-2.34-2.33-2.17c-3.18,0.28-6.37,0.55-9.55,0.81c-1.58,0.13-2.13-0.37-2.13-1.95   c0-3.6-0.03-7.2,0.03-10.79c0.02-1.22-0.44-1.9-1.55-2.38c-10.75-4.71-21.49-9.47-32.23-14.2c-1.66-0.73-2.44-0.21-2.44,1.57   c0,7.87,0,15.75,0.01,23.62c0,1.88-0.46,2.35-2.32,2.35c-6.28,0-12.55,0-18.83,0c-1.7,0-2.03,0.33-2.04,2.03   c0,0.68,0.01,1.36,0.01,2.04c0.01,1.7-0.42,2.15-2.1,2.15c-6.16,0-12.31,0-18.47-0.01c-1.95,0-2.37,0.4-2.36,2.4   C65.16,55.01,65.16,59.73,65.17,64.44C65.16,64.44,65.17,64.44,65.17,64.44z" fill="#fffdfd"/>
	<path d="M110.61,113.44c0-2.44-0.04-4.88,0.02-7.31c0.03-1.08-0.38-1.41-1.4-1.37c-1.68,0.06-3.36-0.01-5.03,0.04   c-0.96,0.03-1.39-0.26-1.35-1.29c0.06-1.8,0.04-3.6,0-5.39c-0.02-0.87,0.3-1.23,1.19-1.21c1.76,0.04,3.52-0.02,5.27,0.04   c0.99,0.03,1.33-0.34,1.32-1.33c-0.05-3.2,0.01-6.4-0.05-9.59c-0.02-1.07,0.26-1.51,1.41-1.48c2.32,0.07,4.64,0.05,6.95,0.01   c1.02-0.02,1.43,0.3,1.41,1.37c-0.06,3.12-0.02,6.23-0.03,9.35c0,1.62,0.02,1.65,1.69,1.65c4.16,0,8.31-0.03,12.47,0.02   c0.95,0.01,1.52-0.26,2.04-1.09c3.96-6.33,9.46-10.63,16.89-11.95c9.29-1.65,17.55,0.44,24.14,7.56c2.58,2.79,4.11,6.15,5.01,9.82   c0.18,0.73-0.11,1.06-0.73,1.24c-2.57,0.73-5.15,1.43-7.72,2.18c-0.84,0.25-1.1-0.05-1.31-0.84c-1.1-4-3.12-7.4-6.95-9.32   c-10.47-5.24-22.05,1.9-22.63,13.13c-0.31,5.93,1.68,10.82,6.48,14.43c8.49,6.39,20.46,2.2,23.07-8.08   c0.26-1.01,0.67-1.18,1.59-0.98c2.14,0.47,4.31,0.86,6.46,1.3c2,0.4,2.05,0.45,1.53,2.41c-2.26,8.5-7.6,14.12-16.05,16.54   c-11.91,3.41-24.03-1.01-30.27-12.22c-2.58-4.64-3.33-9.7-2.79-14.95c0.11-1.01-0.12-1.39-1.16-1.38c-3.52,0.03-7.03,0.03-10.55,0   c-0.87-0.01-1.22,0.32-1.22,1.2c0.02,4.56-0.03,9.11,0.04,13.67c0.07,4.19,2.73,6.26,6.85,5.34c1.19-0.27,2.35-0.72,3.5-1.17   c0.62-0.25,0.98-0.18,1.2,0.47c0.74,2.15,1.52,4.29,2.2,6.46c0.1,0.32-0.16,1-0.44,1.15c-5.55,2.79-11.23,3.44-16.89,0.48   c-3.88-2.03-5.63-5.61-5.95-9.81c-0.23-3.02-0.04-6.07-0.04-9.1C110.71,113.44,110.66,113.44,110.61,113.44z" fill="#fffdfd"/>
	<path d="M278.57,97.11c-4.27,9.87-8.47,19.62-12.69,29.35c-3.3,7.62-6.62,15.23-9.89,22.86c-0.36,0.84-0.84,1.13-1.72,1.11   c-2.68-0.04-5.35-0.01-8.03-0.02c-0.41,0-0.83-0.09-1.43-0.16c0.84-1.96,1.6-3.75,2.37-5.53c1.71-3.96,3.45-7.9,5.11-11.88   c0.2-0.49,0.22-1.21,0.02-1.69c-3.55-8.42-7.17-16.82-10.73-25.24c-0.37-0.88-0.89-1.17-1.82-1.17c-4.95,0.03-9.91,0.04-14.87,0   c-1.03-0.01-1.4,0.32-1.39,1.38c0.05,4.32,0.02,8.63,0.03,12.95c0,0.6,0.02,1.2,0.11,1.79c0.47,2.94,2.81,4.77,5.75,4.29   c1.52-0.25,3-0.8,4.45-1.34c0.69-0.25,1.05-0.19,1.29,0.5c0.74,2.15,1.52,4.29,2.21,6.46c0.09,0.29-0.14,0.92-0.4,1.06   c-5.49,2.82-11.15,3.46-16.79,0.6c-4.11-2.09-5.96-5.84-6.14-10.31c-0.2-5.19-0.13-10.39-0.17-15.58c-0.01-1.79,0.01-1.79-1.8-1.78   c-1.6,0-3.2-0.03-4.79,0.02c-0.91,0.03-1.2-0.35-1.19-1.2c0.03-1.84,0.03-3.68,0-5.51c-0.01-0.87,0.31-1.21,1.21-1.19   c1.76,0.05,3.52-0.02,5.27,0.04c1,0.03,1.33-0.36,1.32-1.34c-0.04-3.24,0.01-6.47-0.04-9.71c-0.01-0.98,0.31-1.36,1.31-1.34   c2.4,0.05,4.8,0.04,7.19,0c0.95-0.02,1.24,0.36,1.23,1.28c-0.05,3.2,0.02,6.4-0.05,9.59c-0.03,1.15,0.31,1.53,1.48,1.52   c7.35-0.05,14.71,0,22.06-0.05c1.11-0.01,1.64,0.38,2.04,1.37c2.76,6.81,5.56,13.6,8.36,20.39c0.1,0.24,0.27,0.45,0.54,0.88   c0.27-0.5,0.48-0.81,0.63-1.15c2.93-6.78,5.86-13.56,8.76-20.35c0.35-0.83,0.82-1.14,1.71-1.13c2.76,0.04,5.51,0.01,8.27,0.02   C277.76,96.92,278.17,97.04,278.57,97.11z" fill="#fffdfd"/>
	<path d="M19.63,133.6c-5.19-0.13-10.13-1.15-14.39-4.39c-2.8-2.13-4.41-5-5.16-8.39c-0.2-0.9-0.07-1.45,1.06-1.64   c2.6-0.43,5.17-1.01,7.75-1.58c0.78-0.17,1.2,0.05,1.47,0.78c0.27,0.75,0.54,1.51,0.95,2.19c1.15,1.92,2.79,3.27,4.98,3.88   c2.92,0.82,5.83,0.9,8.71-0.14c2.48-0.9,3.88-2.97,3.79-5.5c-0.08-2.4-1.68-3.96-4.75-4.57c-3.84-0.76-7.7-1.41-11.52-2.28   c-3.99-0.91-7.56-2.61-9.79-6.31c-3.9-6.5-1.5-15.57,5.5-18.96c7.71-3.74,15.54-3.64,22.93,1.17c3.32,2.16,5.31,5.34,6.33,9.16   c0.18,0.68-0.04,0.96-0.68,1.09c-2.62,0.54-5.23,1.12-7.87,1.6c-0.33,0.06-1.01-0.37-1.09-0.68c-1.5-5.97-8.84-7.83-13.46-5.45   c-2.33,1.2-3.49,3.32-3.14,5.55c0.33,2.07,1.91,3.42,4.57,3.95c3.76,0.75,7.55,1.4,11.26,2.33c4.41,1.1,8.22,3.21,10.16,7.63   c3.14,7.15,0,15.17-7.1,18.43C26.81,133.01,23.28,133.51,19.63,133.6z" fill="#fffdfd"/>
	<path d="M68.73,131.06c-1.54,0.88-2.8,1.82-4.22,2.37c-5.24,2.02-10.49,2.08-15.49-0.68c-4.72-2.61-6.35-6.9-5.71-12.07   c0.59-4.8,3.57-7.79,8.03-9.17c2.21-0.69,4.61-0.9,6.95-1.03c3.07-0.17,6.15-0.07,9.23-0.02c1.09,0.02,1.4-0.4,1.27-1.44   c-0.44-3.55-3.51-5.74-7.56-5.28c-2.98,0.34-5.34,1.56-6.33,4.67c-0.1,0.3-0.8,0.64-1.15,0.58c-2.44-0.42-4.86-0.96-7.29-1.42   c-0.98-0.18-1.35-0.52-1-1.62c1.99-6.2,6.52-9.41,12.62-10.56c4.27-0.81,8.53-0.48,12.56,1.34c5.29,2.39,7.66,6.69,7.72,12.33   c0.07,7.79,0.01,15.58,0.04,23.38c0,0.94-0.3,1.27-1.24,1.25c-2.32-0.05-4.64-0.07-6.95,0.01c-1.11,0.04-1.56-0.31-1.41-1.43   C68.84,131.93,68.76,131.57,68.73,131.06z M62.69,118.04C62.69,118.05,62.69,118.05,62.69,118.04c-1.04,0.01-2.08-0.02-3.12,0.02   c-1.07,0.03-2.17,0-3.21,0.22c-2.25,0.47-3.59,1.97-3.65,3.87c-0.06,1.87,1.32,3.58,3.45,4.24c2.09,0.65,4.22,0.61,6.25-0.12   c3.26-1.17,5.68-3.23,6.37-6.84c0.18-0.95-0.09-1.43-1.16-1.4C65.97,118.08,64.33,118.04,62.69,118.04z" fill="#fffdfd"/>
	<path d="M84.86,100.32c0-7.55,0-15.11,0-22.66c0-1.51,0.05-1.57,1.53-1.57c2.28,0,4.56,0.06,6.83-0.03   c1.15-0.04,1.42,0.4,1.42,1.46c-0.03,14.07-0.02,28.13-0.02,42.2c0,3.49,1.3,4.79,4.82,4.62c0.98-0.05,1.96-0.33,2.91-0.62   c0.7-0.21,1.05-0.11,1.21,0.63c0.45,2.15,0.95,4.29,1.34,6.45c0.06,0.34-0.23,1-0.53,1.13c-4.67,2.04-9.41,2.68-14.04,0   c-3.3-1.91-5.24-4.95-5.32-8.73c-0.18-7.63-0.05-15.26-0.05-22.89C84.93,100.32,84.9,100.32,84.86,100.32z" fill="#fffdfd"/>
	<path d="M190.89,114.87c0-5.51,0.02-11.02-0.02-16.53c-0.01-1,0.33-1.35,1.31-1.34c2.39,0.04,4.79,0.03,7.19,0   c0.88-0.01,1.19,0.35,1.19,1.22c-0.02,11.14-0.02,22.28-0.01,33.42c0,0.95-0.28,1.38-1.3,1.36c-2.35-0.05-4.71-0.05-7.07,0   c-1,0.02-1.31-0.38-1.31-1.35C190.91,126.05,190.9,120.46,190.89,114.87z" fill="#fffdfd"/>
	<path d="M86.45,165.34c-5.32-0.04-9.43-2.14-11.87-6.83c-2.99-5.73-0.6-12.34,5.41-15.54c5.12-2.73,12.1-1.72,15.92,2.42   c0.9,0.97,1.44,2.27,2.13,3.43c0.33,0.55,0.15,0.9-0.46,1.06c-0.19,0.05-0.38,0.11-0.58,0.17c-2.22,0.65-2.19,0.64-3.35-1.28   c-1.84-3.06-4.74-4.01-8.1-3.83c-6.29,0.34-10.01,6.69-7.28,12.34c1.58,3.27,6.1,5.34,9.75,4.56c2.84-0.61,5-2,6.17-4.77   c0.15-0.35,0.82-0.51,1.28-0.68c0.2-0.07,0.47,0.06,0.7,0.1c2.33,0.36,2.46,0.58,1.31,2.7C95.09,163.6,91.17,165.27,86.45,165.34z" fill="#fffdfd"/>
	<path d="M192.33,163.16c-2.9,2.21-5.98,2.56-9.16,1.9c-2.04-0.42-3.77-1.55-5.02-3.26c-2.41-3.28-2.33-7.56,0.17-10.81   c1.08-1.41,2.49-2.46,4.2-2.82c1.61-0.34,3.33-0.57,4.94-0.36c1.64,0.22,3.2,1.03,4.75,1.57c0.17-0.32,0.37-1.11,0.67-1.15   c1.01-0.15,2.06-0.06,3.09,0.02c0.13,0.01,0.32,0.51,0.32,0.79c0.02,4.96,0.01,9.91,0.02,14.87c0,0.67-0.24,0.97-0.91,0.93   c-0.4-0.02-0.8-0.02-1.2,0C193.18,164.89,192.12,165,192.33,163.16z M192.4,156.53c0.01-3.34-2.71-5.92-6.23-5.91   c-3.41,0.02-6,2.53-6.01,5.84c-0.01,3.38,2.54,5.87,6.06,5.9C189.63,162.4,192.4,159.79,192.4,156.53z" fill="#fffdfd"/>
	<path d="M112.41,157.3c-2.08,0-4.16,0.03-6.23-0.01c-0.97-0.02-1.25,0.32-0.9,1.22c0.82,2.1,2.3,3.48,4.56,3.77   c2.11,0.27,4.06-0.18,5.51-1.92c0.65-0.78,2.95-1.01,3.61-0.28c0.18,0.2,0.07,0.83-0.12,1.14c-1.28,2.15-3.25,3.46-5.65,3.89   c-3.57,0.63-6.9,0.14-9.62-2.63c-4.43-4.52-2.42-12.47,3.66-14.29c4.08-1.22,7.75-0.64,10.71,2.67c1.34,1.49,1.86,3.31,2.01,5.27   c0.07,0.88-0.31,1.21-1.19,1.2C116.65,157.28,114.53,157.31,112.41,157.3C112.41,157.3,112.41,157.3,112.41,157.3z M115.76,154.7   c-0.27-2.78-3.11-4.14-5.15-4.08c-2.78,0.08-5.37,2.28-5.22,4.08C108.82,154.7,112.25,154.7,115.76,154.7z" fill="#fffdfd"/>
	<path d="M128.67,149.88c1.89-1.66,4.01-2.33,6.37-2.3c4.37,0.07,7.27,2.98,7.29,7.36c0.02,2.92-0.03,5.84,0.03,8.75   c0.02,0.92-0.3,1.16-1.17,1.16c-2.74,0.01-2.74,0.04-2.74-2.7c0-2.16,0-4.32,0-6.48c0-2.53-1.28-4.27-3.41-4.69   c-2.67-0.52-5.25,0.75-6.07,3.1c-0.31,0.89-0.49,1.86-0.52,2.8c-0.07,2.32-0.04,4.64-0.01,6.95c0.01,0.72-0.22,0.97-0.95,1   c-2.95,0.12-2.95,0.14-2.95-2.84c0-4.24,0.02-8.48-0.02-12.71c-0.01-0.9,0.29-1.26,1.17-1.16c0.24,0.03,0.48,0,0.72,0   C128.19,148.14,128.19,148.14,128.67,149.88z" fill="#fffdfd"/>
	<path d="M148.45,155.97c0-1.32-0.01-2.64,0.01-3.96c0.01-0.7-0.25-1.05-0.99-0.98c-0.48,0.04-0.96-0.04-1.44,0.02   c-1.15,0.14-1.57-0.29-1.49-1.47c0.09-1.44,0.02-1.44,1.72-1.45c2.55-0.01,2.17,0.2,2.2-2.15c0-0.12,0-0.24,0-0.36   c0.05-3.19-0.48-2.7,2.82-2.77c0.77-0.02,1.1,0.27,1.08,1.04c-0.03,1.04,0.03,2.08-0.02,3.12c-0.05,0.83,0.24,1.16,1.09,1.13   c1.4-0.05,2.8,0.02,4.2-0.02c0.95-0.03,1.04,0.54,0.96,1.25c-0.07,0.68,0.35,1.65-0.93,1.66c-1.4,0-2.8,0.03-4.2-0.01   c-0.75-0.02-1.12,0.19-1.11,0.99c0.02,2.44-0.04,4.88,0.02,7.31c0.06,2.15,2.06,3.26,4.43,2.54c1.72-0.52,2.34-0.15,2.65,1.68   c0.04,0.25-0.2,0.66-0.43,0.82c-1.81,1.28-6.44,1.44-8.52-0.36c-1.36-1.17-1.95-2.71-2.03-4.45   C148.41,158.37,148.46,157.17,148.45,155.97C148.46,155.97,148.45,155.97,148.45,155.97z" fill="#fffdfd"/>
	<path d="M195.74,91.95c-3.43,0-5.75-2.23-5.74-5.53c0.01-3.37,2.37-5.7,5.76-5.7c3.32,0,5.82,2.47,5.78,5.71   C201.49,89.7,199.14,91.95,195.74,91.95z" fill="#fffdfd"/>
	<path d="M166.93,151.33c1.13-0.83,2.05-1.78,3.18-2.26c1.25-0.53,2.68-0.67,4.04-0.91c0.63-0.11,0.98,0.22,0.9,0.91   c-0.05,0.4-0.08,0.79-0.1,1.19c-0.03,0.97-0.44,1.34-1.48,1.37c-4.13,0.13-6.62,2.76-6.66,6.9c-0.02,1.76-0.03,3.51,0.01,5.27   c0.02,0.78-0.26,1.06-1.04,1.05c-3.57-0.07-2.83,0.42-2.87-2.78c-0.05-4.23,0.01-8.46-0.03-12.69c-0.01-0.94,0.26-1.25,1.21-1.25   c2.57,0.01,2.57-0.03,2.7,2.61C166.81,150.92,166.88,151.1,166.93,151.33z" fill="#fffdfd"/>
	<path d="M205.76,152.57c0,3.68-0.03,7.36,0.02,11.03c0.01,0.93-0.23,1.28-1.21,1.25c-3.28-0.09-2.68,0.35-2.69-2.62   c-0.03-6.84,0.01-13.67-0.03-20.51c-0.01-1.12,0.26-1.56,1.46-1.52c2.83,0.1,2.44-0.3,2.45,2.41   C205.77,145.93,205.76,149.25,205.76,152.57z" fill="#fffdfd"/>
</g>
</svg>