<?xml version="1.0"?><svg xmlns="http://www.w3.org/2000/svg" width="243.52" height="257.20" viewBox="310.24 301.96 243.52 257.20">
<rect x="-86.4" y="-86.4" width="1036.8" height="1036.8" fill="rgb(0%, 0%, 0%)" fill-opacity="1"></rect>
<path fill-rule="evenodd" fill="rgb(100%, 100%, 100%)" fill-opacity="1" d="M 425.8125 476.914062 C 427.34375 476.914062 428.667969 476.285156 431.027344 475.167969 C 433.644531 473.925781 437.535156 472.082031 442.28125 469.882812 C 442.863281 469.113281 443.453125 468.347656 444.050781 467.585938 C 445.9375 465.164062 447.871094 462.789062 449.863281 460.480469 C 451.863281 458.160156 453.933594 455.894531 456.085938 453.707031 C 458.261719 451.496094 460.5 449.386719 462.785156 447.355469 C 465.0625 445.328125 467.417969 443.355469 469.832031 441.421875 C 470.113281 441.140625 470.890625 440.582031 471.226562 440.3125 L 471.226562 440.308594 C 472.324219 439.445312 473.453125 438.570312 474.652344 437.683594 C 475.820312 436.816406 477.007812 435.976562 478.21875 435.191406 C 479.644531 434.261719 481.207031 433.320312 482.875 432.769531 C 484.640625 432.1875 486.507812 432.042969 488.433594 432.777344 C 488.875 432.945312 489.308594 433.160156 489.726562 433.421875 C 490.144531 433.683594 490.527344 433.976562 490.871094 434.304688 C 493.039062 436.347656 493.480469 438.777344 493.089844 441.214844 C 492.878906 442.554688 492.410156 443.882812 491.851562 445.136719 C 493.085938 444.027344 494.257812 442.953125 495.359375 441.933594 C 496.261719 441.097656 497.214844 440.195312 498.222656 439.230469 C 499.109375 438.375 500.046875 437.460938 501.03125 436.476562 C 504.257812 433.246094 507.3125 429.929688 510.269531 426.535156 C 513.261719 423.097656 516.128906 419.621094 518.976562 416.09375 L 520.296875 414.453125 C 521.953125 412.390625 523.613281 410.328125 525.398438 408.179688 L 525.558594 407.988281 C 527.03125 406.21875 528.636719 404.289062 530.355469 402.734375 C 531.144531 402.019531 531.992188 401.382812 532.902344 400.894531 L 532.902344 378.226562 L 527.160156 378.226562 L 527.160156 359.4375 C 515.996094 359.4375 508.753906 360.675781 498.441406 361.414062 L 498.441406 336.691406 L 463.597656 323.175781 C 460.183594 321.6875 457.960938 321.105469 454.789062 319.882812 C 451.867188 318.753906 449.695312 317.519531 446.28125 316.328125 C 440.578125 314.335938 434.429688 310.976562 429.515625 309.992188 L 429.515625 358.449219 L 380.121094 358.449219 L 380.121094 370.316406 L 334.171875 370.316406 L 334.171875 403.332031 C 334.710938 403.851562 335.230469 404.410156 335.742188 404.976562 C 337.3125 406.695312 338.835938 408.398438 340.328125 410.089844 C 341.78125 411.738281 343.289062 413.472656 344.828125 415.269531 C 346 416.632812 347.167969 418 348.332031 419.367188 C 351.769531 423.402344 355.207031 427.4375 358.792969 431.363281 C 360.789062 433.550781 362.816406 435.664062 364.867188 437.734375 C 365.988281 438.867188 367.125 439.992188 368.269531 441.113281 C 368.226562 440.90625 368.1875 440.699219 368.148438 440.488281 C 367.796875 438.496094 367.960938 436.542969 368.746094 434.878906 C 369.476562 433.335938 370.734375 432.0625 372.597656 431.253906 C 374.5 430.433594 376.390625 430.410156 378.199219 430.859375 C 379.945312 431.292969 381.59375 432.167969 383.089844 433.175781 C 386.316406 435.351562 389.589844 438.320312 392.574219 441.03125 L 394.003906 442.324219 C 396.34375 444.429688 398.695312 446.5625 401.058594 448.742188 C 403.386719 450.890625 405.707031 453.074219 408 455.304688 C 409.6875 456.945312 411.347656 458.609375 412.960938 460.308594 C 414.570312 462.003906 416.148438 463.757812 417.671875 465.582031 C 418.8125 466.953125 419.882812 468.328125 420.898438 469.710938 C 421.921875 471.097656 422.910156 472.523438 423.890625 473.988281 L 423.894531 473.992188 C 424.519531 474.929688 425.15625 475.898438 425.8125 476.914062 "></path>
<path fill-rule="evenodd" fill="rgb(100%, 100%, 100%)" fill-opacity="1" d="M 485.957031 440.71875 C 484.679688 440.230469 479.105469 444.34375 474.1875 448.289062 C 469.269531 452.230469 465.003906 456.007812 461.042969 460.027344 C 457.085938 464.046875 453.429688 468.3125 449.53125 473.308594 C 445.632812 478.300781 441.492188 484.027344 437.898438 490.300781 C 434.304688 496.574219 431.257812 503.398438 429.796875 509.609375 C 428.335938 515.824219 428.457031 521.425781 428.945312 526.242188 C 429.429688 531.050781 430.285156 535.074219 431.601562 539.105469 C 432.914062 543.136719 434.695312 547.175781 435.6875 549.316406 C 436.679688 551.453125 436.886719 551.6875 441.171875 550.09375 C 445.460938 548.496094 453.832031 545.074219 462.035156 541.046875 C 470.242188 537.023438 478.28125 532.390625 486.933594 526.972656 C 495.582031 521.550781 504.839844 515.335938 512.882812 508.332031 C 520.921875 501.328125 527.742188 493.53125 532.496094 486.28125 C 537.246094 479.03125 539.925781 472.332031 541.632812 466.851562 C 543.335938 461.367188 544.066406 457.105469 544.433594 454.730469 C 544.800781 452.351562 544.800781 451.867188 544.859375 451.5 C 544.921875 451.136719 545.042969 450.890625 544.492188 451.195312 C 543.945312 451.5 542.726562 452.355469 539.863281 455.703125 C 537.003906 459.054688 532.496094 464.902344 527.925781 470.6875 C 523.359375 476.476562 518.726562 482.199219 515.011719 486.097656 C 511.296875 489.996094 508.496094 492.066406 507.09375 493.105469 C 505.691406 494.140625 505.691406 494.140625 505.570312 494.015625 C 505.449219 493.894531 505.207031 493.652344 506.242188 491.640625 C 507.277344 489.632812 509.589844 485.855469 512.941406 481.773438 C 516.292969 477.695312 520.675781 473.308594 522.871094 471.113281 C 525.0625 468.921875 525.0625 468.921875 527.074219 466.058594 C 529.082031 463.195312 533.105469 457.46875 536.652344 451.578125 C 540.199219 445.683594 543.277344 439.621094 544.617188 434.324219 C 545.957031 429.023438 545.558594 424.484375 545.238281 422.339844 C 544.921875 420.191406 544.675781 420.433594 543.15625 422.445312 C 541.632812 424.457031 538.828125 428.230469 535.660156 432.863281 C 532.496094 437.492188 528.960938 442.972656 527.195312 445.714844 C 525.429688 448.457031 525.429688 448.457031 522.929688 451.257812 C 520.433594 454.058594 515.4375 459.664062 512.941406 462.464844 C 510.445312 465.265625 510.445312 465.265625 508.921875 466.363281 C 507.398438 467.460938 504.351562 469.652344 502.128906 470.730469 C 499.90625 471.804688 498.503906 471.765625 497.714844 471.640625 C 496.921875 471.519531 496.738281 471.316406 498.046875 470 C 499.359375 468.679688 502.160156 466.242188 505.632812 462.527344 C 509.105469 458.808594 513.246094 453.816406 516.65625 449.613281 C 520.070312 445.410156 522.75 442 525.246094 438.40625 C 527.742188 434.8125 530.058594 431.035156 532.128906 427.378906 C 534.199219 423.722656 536.027344 420.191406 536.941406 417.085938 C 537.855469 413.980469 537.855469 411.296875 537.824219 410.121094 C 537.792969 408.941406 537.734375 409.269531 537.550781 408.902344 C 537.367188 408.539062 537.0625 407.480469 535.023438 409.328125 C 532.980469 411.175781 529.207031 415.929688 524.394531 421.898438 C 519.582031 427.867188 513.734375 435.054688 505.953125 442.835938 C 498.171875 450.617188 488.457031 458.992188 482.378906 462.816406 C 476.304688 466.636719 473.867188 465.90625 474.277344 463.242188 C 474.691406 460.578125 477.949219 455.976562 479.578125 453.679688 C 481.207031 451.378906 481.207031 451.378906 481.207031 451.378906 C 481.207031 451.378906 481.207031 451.378906 482.714844 448.835938 C 484.222656 446.292969 487.238281 441.207031 485.957031 440.71875 "></path>
<path fill-rule="evenodd" fill="rgb(100%, 100%, 100%)" fill-opacity="1" d="M 422.746094 486.597656 C 423.652344 488.125 423.539062 488.125 422.691406 489.597656 C 421.839844 491.070312 420.253906 494.011719 419.023438 497.695312 C 417.792969 501.375 416.914062 505.792969 416.292969 508.738281 C 415.667969 511.683594 415.300781 513.15625 415.230469 515.820312 C 415.15625 518.480469 415.382812 522.332031 415.949219 526.242188 C 416.515625 530.148438 417.421875 534.113281 418.613281 537.34375 C 419.800781 540.570312 421.273438 543.0625 421.5 544.875 C 421.726562 546.6875 420.707031 547.820312 420.199219 548.386719 C 419.6875 548.953125 419.6875 548.953125 416.742188 547.535156 C 413.796875 546.121094 407.910156 543.289062 400.09375 539.324219 C 392.277344 535.359375 382.535156 530.261719 375.058594 525.902344 C 367.585938 521.539062 362.375 517.917969 357.84375 514.234375 C 353.3125 510.554688 349.460938 506.816406 347.535156 504.945312 C 345.609375 503.078125 345.609375 503.078125 343.628906 500.8125 C 341.644531 498.546875 337.679688 494.015625 335.699219 491.75 C 333.714844 489.484375 333.714844 489.484375 332.355469 487.390625 C 330.996094 485.292969 328.28125 481.101562 326.070312 476.515625 C 323.863281 471.929688 322.164062 466.945312 321.257812 463.660156 C 320.351562 460.375 320.238281 458.789062 320.179688 457.570312 C 320.125 456.355469 320.125 455.503906 320.125 454.898438 C 320.125 454.289062 320.125 453.917969 320.125 453.550781 C 320.125 453.183594 320.125 452.816406 320.125 452.628906 C 320.125 452.445312 320.125 452.445312 320.519531 452.617188 C 320.917969 452.785156 321.710938 453.125 322.84375 454.484375 C 323.976562 455.84375 325.449219 458.222656 326.183594 459.410156 C 326.921875 460.601562 326.921875 460.601562 329.1875 463.320312 C 331.449219 466.039062 335.980469 471.476562 340.058594 476.121094 C 344.136719 480.761719 347.761719 484.613281 349.574219 486.539062 C 351.386719 488.464844 351.386719 488.464844 352.40625 489.203125 C 353.425781 489.9375 355.464844 491.410156 356.539062 491.523438 C 357.617188 491.636719 357.730469 490.390625 356.199219 488.125 C 354.671875 485.859375 351.5 482.574219 348.851562 479.703125 C 346.203125 476.828125 344.082031 474.363281 342.835938 472.949219 C 341.589844 471.53125 341.222656 471.164062 340.695312 470.34375 C 340.171875 469.519531 339.492188 468.246094 338.347656 466.546875 C 337.199219 464.847656 335.585938 462.722656 333.601562 459.738281 C 331.621094 456.75 329.269531 452.898438 328.09375 450.972656 C 326.921875 449.046875 326.921875 449.046875 325.957031 447.179688 C 324.996094 445.308594 323.070312 441.570312 321.652344 437.609375 C 320.238281 433.644531 319.332031 429.453125 318.949219 427.242188 C 318.566406 425.035156 318.707031 424.808594 318.59375 424.046875 C 318.480469 423.28125 318.113281 421.980469 319.230469 422.941406 C 320.351562 423.902344 322.957031 427.128906 324.257812 428.742188 C 325.5625 430.359375 325.5625 430.359375 327.089844 432.285156 C 328.617188 434.210938 331.675781 438.058594 335.527344 442.589844 C 339.378906 447.121094 344.023438 452.332031 348.269531 456.921875 C 352.519531 461.507812 356.371094 465.472656 359.03125 467.625 C 361.695312 469.777344 363.167969 470.117188 363.902344 470.285156 C 364.640625 470.457031 364.640625 470.457031 364.753906 470.058594 C 364.867188 469.664062 365.09375 468.871094 362.488281 465.753906 C 359.882812 462.640625 354.445312 457.203125 350.085938 452.445312 C 345.722656 447.6875 342.4375 443.609375 339.707031 440.097656 C 336.972656 436.589844 334.792969 433.644531 332.753906 430.585938 C 330.714844 427.527344 328.816406 424.355469 327.65625 421.652344 C 326.496094 418.945312 326.070312 416.710938 325.902344 414.953125 C 325.730469 413.199219 325.816406 411.921875 326.199219 410.890625 C 326.582031 409.855469 327.261719 409.0625 327.828125 408.894531 C 328.394531 408.722656 328.847656 409.175781 330.601562 411.101562 C 332.355469 413.027344 335.414062 416.425781 339.550781 421.238281 C 343.683594 426.054688 348.894531 432.285156 353.652344 437.496094 C 358.410156 442.703125 362.714844 446.894531 366.621094 450.632812 C 370.527344 454.371094 374.039062 457.65625 376.6875 459.878906 C 379.335938 462.101562 381.121094 463.261719 382.195312 463.941406 C 383.269531 464.625 383.640625 464.820312 384.660156 465.0625 C 385.679688 465.300781 387.347656 465.585938 388.367188 465.019531 C 389.386719 464.453125 389.757812 463.039062 389.261719 461.140625 C 388.765625 459.242188 387.40625 456.863281 385.933594 454.996094 C 384.460938 453.125 382.875 451.765625 381.175781 450.125 C 379.476562 448.480469 377.664062 446.554688 376.589844 444.855469 C 375.511719 443.15625 375.171875 441.683594 375.003906 440.722656 C 374.832031 439.757812 374.832031 439.304688 375.355469 439.082031 C 375.882812 438.855469 376.929688 438.855469 379.195312 440.382812 C 381.460938 441.910156 384.941406 444.96875 389.347656 448.933594 C 393.75 452.898438 399.074219 457.769531 403.152344 461.734375 C 407.230469 465.699219 410.058594 468.757812 412.324219 471.476562 C 414.589844 474.195312 416.289062 476.574219 418.101562 479.289062 C 419.914062 482.007812 421.839844 485.066406 422.746094 486.597656 "></path>
</svg>